<?xml version="1.0" encoding="UTF-8" standalone="no"?>
<!-- Created with Inkscape (http://www.inkscape.org/) -->

<svg
   xmlns:dc="http://purl.org/dc/elements/1.1/"
   xmlns:cc="http://creativecommons.org/ns#"
   xmlns:rdf="http://www.w3.org/1999/02/22-rdf-syntax-ns#"
   xmlns:svg="http://www.w3.org/2000/svg"
   xmlns="http://www.w3.org/2000/svg"
   xmlns:sodipodi="http://sodipodi.sourceforge.net/DTD/sodipodi-0.dtd"
   xmlns:inkscape="http://www.inkscape.org/namespaces/inkscape"
   width="512"
   height="512"
   viewBox="0 0 512.00001 512.00001"
   id="svg7311"
   version="1.1"
   inkscape:version="0.91 r13725"
   sodipodi:docname="main_body.svg">
  <defs
     id="defs7313" />
  <sodipodi:namedview
     id="base"
     pagecolor="#ffffff"
     bordercolor="#666666"
     borderopacity="0"
     inkscape:pageopacity="0.36862745"
     inkscape:pageshadow="2"
     inkscape:zoom="0.86549548"
     inkscape:cx="194.6258"
     inkscape:cy="330.53154"
     inkscape:document-units="px"
     inkscape:current-layer="layer1"
     showgrid="false"
     units="px"
     inkscape:window-width="1536"
     inkscape:window-height="801"
     inkscape:window-x="-8"
     inkscape:window-y="-8"
     inkscape:window-maximized="1" />
  <metadata
     id="metadata7316">
    <rdf:RDF>
      <cc:Work
         rdf:about="">
        <dc:format>image/svg+xml</dc:format>
        <dc:type
           rdf:resource="http://purl.org/dc/dcmitype/StillImage" />
        <dc:title></dc:title>
      </cc:Work>
    </rdf:RDF>
  </metadata>
  <g
     inkscape:label="Layer 1"
     inkscape:groupmode="layer"
     id="layer1"
     transform="translate(0,-540.36216)">
    <path
       style="fill:#03374e;fill-opacity:1;fill-rule:evenodd;stroke:none;stroke-width:1px;stroke-linecap:butt;stroke-linejoin:miter;stroke-opacity:1"
       d="m 261.33958,651.50802 c 12.3844,13.15015 20.56939,20.72549 24.97307,26.19197 4.54158,5.63766 11.48094,13.86822 20.18974,29.00391 5.24621,9.22339 7.26058,13.24031 8.96342,16.73929 1.70283,3.49898 3.27404,7.10971 4.93527,12.37225 1.5069,4.77367 3.8026,10.3462 5.37706,16.06706 1.57446,5.72086 2.62578,11.55096 3.43278,16.16263 6.02087,34.40666 0.10207,61.50633 -2.13432,78.25723 -8.02475,48.54823 -56.95764,149.90081 -117.10504,201.01184 -18.49618,-52.51663 -30.63886,-81.57499 -45.56927,-118.29133 -7.68099,-20.6686 -22.97933,-47.35587 -38.43946,-108.62805 -6.65282,-26.36668 -11.34895,-62.70664 4.45845,-100.78679 13.68947,-29.26315 10.20252,-29.11536 23.35714,-48.79518 35.80086,12.50776 68.8643,4.70292 107.56116,-19.30483 z"
       id="path7861"
       inkscape:connector-curvature="0"
       sodipodi:nodetypes="cscsssscccsccc" />
  </g>
</svg>
